<svg viewBox="0 0 800 920" xmlns="http://www.w3.org/2000/svg" font-family="Segoe UI, system-ui, sans-serif">
  <defs>
    <marker id="arrow1" markerWidth="10" markerHeight="7" refX="10" refY="3.5" orient="auto">
      <polygon points="0 0, 10 3.5, 0 7" fill="#3b82f6"/>
    </marker>
    <marker id="arrow1p" markerWidth="10" markerHeight="7" refX="10" refY="3.5" orient="auto">
      <polygon points="0 0, 10 3.5, 0 7" fill="#8b5cf6"/>
    </marker>
  </defs>

  <!-- Background -->
  <rect width="800" height="920" rx="12" fill="#0f172a"/>

  <!-- Title -->
  <text x="400" y="36" text-anchor="middle" fill="#e2e8f0" font-size="18" font-weight="600">Architecture Overview</text>

  <!-- Frontend -->
  <rect x="220" y="56" width="360" height="56" rx="8" fill="#1e293b" stroke="#334155" stroke-width="1.5"/>
  <text x="400" y="80" text-anchor="middle" fill="#e2e8f0" font-size="14" font-weight="600">Frontend</text>
  <text x="400" y="98" text-anchor="middle" fill="#94a3b8" font-size="12">Next.js + CopilotKit</text>

  <!-- Arrow: Frontend -> AG-UI -->
  <line x1="400" y1="112" x2="400" y2="132" stroke="#3b82f6" stroke-width="1.5" marker-end="url(#arrow1)"/>

  <!-- AG-UI Protocol -->
  <rect x="270" y="136" width="260" height="36" rx="8" fill="#1e3a5f" stroke="#3b82f6" stroke-width="1.5" stroke-dasharray="6,3"/>
  <text x="400" y="159" text-anchor="middle" fill="#60a5fa" font-size="12" font-weight="600">AG-UI Protocol (SSE)</text>

  <!-- Arrow: AG-UI -> Orchestrator -->
  <line x1="400" y1="172" x2="400" y2="192" stroke="#3b82f6" stroke-width="1.5" marker-end="url(#arrow1)"/>

  <!-- Orchestrator -->
  <rect x="180" y="196" width="440" height="56" rx="8" fill="#1e293b" stroke="#334155" stroke-width="1.5"/>
  <text x="400" y="220" text-anchor="middle" fill="#e2e8f0" font-size="14" font-weight="600">Orchestrator</text>
  <text x="400" y="238" text-anchor="middle" fill="#94a3b8" font-size="12">ASP.NET Core  (AiAgentCanvas.Web)</text>

  <!-- Arrow: Orchestrator -> SDK -->
  <line x1="400" y1="252" x2="400" y2="278" stroke="#3b82f6" stroke-width="1.5" marker-end="url(#arrow1)"/>

  <!-- SDK Components group -->
  <rect x="40" y="282" width="720" height="200" rx="10" fill="none" stroke="#334155" stroke-width="1" stroke-dasharray="5,3"/>
  <text x="60" y="302" fill="#94a3b8" font-size="11" font-weight="600" letter-spacing="1">SDK COMPONENTS</text>

  <!-- Row 1 of SDK -->
  <rect x="60" y="312" width="150" height="40" rx="6" fill="#1e293b" stroke="#334155" stroke-width="1.5"/>
  <text x="135" y="337" text-anchor="middle" fill="#e2e8f0" font-size="12">Abstractions</text>

  <rect x="225" y="312" width="110" height="40" rx="6" fill="#1e293b" stroke="#334155" stroke-width="1.5"/>
  <text x="280" y="337" text-anchor="middle" fill="#e2e8f0" font-size="12">Core</text>

  <rect x="350" y="312" width="120" height="40" rx="6" fill="#1e293b" stroke="#334155" stroke-width="1.5"/>
  <text x="410" y="337" text-anchor="middle" fill="#e2e8f0" font-size="12">AgentData</text>

  <rect x="485" y="312" width="110" height="40" rx="6" fill="#1e293b" stroke="#334155" stroke-width="1.5"/>
  <text x="540" y="337" text-anchor="middle" fill="#e2e8f0" font-size="12">Skills</text>

  <!-- Row 2 of SDK -->
  <rect x="60" y="366" width="130" height="40" rx="6" fill="#1e293b" stroke="#334155" stroke-width="1.5"/>
  <text x="125" y="391" text-anchor="middle" fill="#e2e8f0" font-size="12">Scheduler</text>

  <rect x="205" y="366" width="130" height="40" rx="6" fill="#1e293b" stroke="#334155" stroke-width="1.5"/>
  <text x="270" y="391" text-anchor="middle" fill="#e2e8f0" font-size="12">Security</text>

  <rect x="350" y="366" width="140" height="40" rx="6" fill="#1e293b" stroke="#334155" stroke-width="1.5"/>
  <text x="420" y="391" text-anchor="middle" fill="#e2e8f0" font-size="12">SystemTools</text>

  <rect x="505" y="366" width="150" height="40" rx="6" fill="#1e293b" stroke="#334155" stroke-width="1.5"/>
  <text x="580" y="391" text-anchor="middle" fill="#e2e8f0" font-size="12">Notifications</text>

  <!-- IAgentMessaging label -->
  <rect x="160" y="424" width="480" height="40" rx="6" fill="#1e293b" stroke="#3b82f6" stroke-width="1.5"/>
  <text x="400" y="449" text-anchor="middle" fill="#60a5fa" font-size="12" font-weight="600">IAgentMessaging  (AgentRegistry + AgentMailbox + Handoff)</text>

  <!-- Arrows to Agents and DataConnections -->
  <line x1="280" y1="482" x2="200" y2="520" stroke="#8b5cf6" stroke-width="1.5" marker-end="url(#arrow1p)"/>
  <line x1="520" y1="482" x2="600" y2="520" stroke="#3b82f6" stroke-width="1.5" marker-end="url(#arrow1)"/>

  <!-- Agents group -->
  <rect x="40" y="524" width="340" height="120" rx="10" fill="none" stroke="#8b5cf6" stroke-width="1" stroke-dasharray="5,3"/>
  <text x="60" y="544" fill="#a78bfa" font-size="11" font-weight="600" letter-spacing="1">AGENTS (Custom)</text>

  <rect x="60" y="556" width="200" height="40" rx="6" fill="#1e293b" stroke="#8b5cf6" stroke-width="1.5"/>
  <text x="160" y="581" text-anchor="middle" fill="#c4b5fd" font-size="12">Agent.HelloWorld</text>

  <text x="60" y="624" fill="#64748b" font-size="11" font-style="italic">Persona + Guardrails + Context seeds</text>

  <!-- DataConnections group -->
  <rect x="420" y="524" width="340" height="120" rx="10" fill="none" stroke="#334155" stroke-width="1" stroke-dasharray="5,3"/>
  <text x="440" y="544" fill="#94a3b8" font-size="11" font-weight="600" letter-spacing="1">DATA CONNECTIONS (Custom)</text>

  <rect x="440" y="556" width="190" height="40" rx="6" fill="#1e293b" stroke="#334155" stroke-width="1.5"/>
  <text x="535" y="581" text-anchor="middle" fill="#e2e8f0" font-size="12">MCP.HelloWorldData</text>

  <rect x="440" y="602" width="190" height="34" rx="6" fill="#1e293b" stroke="#334155" stroke-width="1.5"/>
  <text x="535" y="624" text-anchor="middle" fill="#e2e8f0" font-size="12">VectorStore.Sqlite</text>

  <!-- Arrow down to LLM -->
  <line x1="400" y1="658" x2="400" y2="690" stroke="#3b82f6" stroke-width="1.5" marker-end="url(#arrow1)"/>

  <!-- Governance -->
  <rect x="610" y="312" width="130" height="40" rx="6" fill="#1e293b" stroke="#334155" stroke-width="1.5"/>
  <text x="675" y="337" text-anchor="middle" fill="#e2e8f0" font-size="11">Governance</text>

  <!-- Azure AI Foundry -->
  <rect x="200" y="694" width="400" height="56" rx="8" fill="#1e293b" stroke="#3b82f6" stroke-width="2"/>
  <text x="400" y="718" text-anchor="middle" fill="#e2e8f0" font-size="14" font-weight="600">Azure AI Foundry</text>
  <text x="400" y="738" text-anchor="middle" fill="#94a3b8" font-size="12">LLM Models (GPT-4o, etc.)</text>

  <!-- Legend -->
  <rect x="40" y="780" width="720" height="120" rx="8" fill="#0f172a" stroke="#334155" stroke-width="1"/>
  <text x="60" y="802" fill="#94a3b8" font-size="11" font-weight="600" letter-spacing="1">LEGEND</text>

  <line x1="60" y1="822" x2="100" y2="822" stroke="#3b82f6" stroke-width="2"/>
  <text x="110" y="826" fill="#94a3b8" font-size="11">Platform / Infrastructure flow</text>

  <line x1="60" y1="846" x2="100" y2="846" stroke="#8b5cf6" stroke-width="2"/>
  <text x="110" y="850" fill="#94a3b8" font-size="11">Agent connections</text>

  <line x1="60" y1="870" x2="100" y2="870" stroke="#334155" stroke-width="2" stroke-dasharray="5,3"/>
  <text x="110" y="874" fill="#94a3b8" font-size="11">Logical grouping</text>

  <rect x="400" y="814" width="20" height="14" rx="3" fill="#1e293b" stroke="#334155" stroke-width="1"/>
  <text x="430" y="826" fill="#94a3b8" font-size="11">SDK / Platform component</text>

  <rect x="400" y="838" width="20" height="14" rx="3" fill="#1e293b" stroke="#8b5cf6" stroke-width="1"/>
  <text x="430" y="850" fill="#94a3b8" font-size="11">Custom / Business logic component</text>

  <rect x="400" y="862" width="20" height="14" rx="3" fill="#1e3a5f" stroke="#3b82f6" stroke-width="1" stroke-dasharray="4,2"/>
  <text x="430" y="874" fill="#94a3b8" font-size="11">Protocol / Communication layer</text>
</svg>