<svg viewBox="0 0 800 780" xmlns="http://www.w3.org/2000/svg" font-family="Segoe UI, system-ui, sans-serif">
  <defs>
    <marker id="arrow3" markerWidth="10" markerHeight="7" refX="10" refY="3.5" orient="auto">
      <polygon points="0 0, 10 3.5, 0 7" fill="#3b82f6"/>
    </marker>
  </defs>

  <!-- Background -->
  <rect width="800" height="780" rx="12" fill="#0f172a"/>

  <!-- Title -->
  <text x="400" y="36" text-anchor="middle" fill="#e2e8f0" font-size="18" font-weight="600">Project Structure</text>
  <text x="400" y="56" text-anchor="middle" fill="#64748b" font-size="12">Solution folders and their projects</text>

  <!-- 1. AiAgentCanvas (SDK) -->
  <rect x="40" y="76" width="720" height="280" rx="10" fill="#111827" stroke="#3b82f6" stroke-width="1.5"/>
  <rect x="40" y="76" width="720" height="32" rx="10" fill="#1e3a5f"/>
  <rect x="40" y="96" width="720" height="12" fill="#1e3a5f"/>
  <text x="60" y="98" fill="#60a5fa" font-size="13" font-weight="700">AiAgentCanvas (SDK)</text>
  <text x="680" y="98" fill="#94a3b8" font-size="10" text-anchor="end">Platform layer -- no business logic</text>

  <!-- Row 1 -->
  <rect x="60" y="120" width="160" height="44" rx="6" fill="#1e293b" stroke="#334155" stroke-width="1.5"/>
  <text x="140" y="140" text-anchor="middle" fill="#e2e8f0" font-size="12" font-weight="600">Abstractions</text>
  <text x="140" y="154" text-anchor="middle" fill="#64748b" font-size="9">Shared interfaces</text>

  <rect x="235" y="120" width="120" height="44" rx="6" fill="#1e293b" stroke="#334155" stroke-width="1.5"/>
  <text x="295" y="140" text-anchor="middle" fill="#e2e8f0" font-size="12" font-weight="600">Core</text>
  <text x="295" y="154" text-anchor="middle" fill="#64748b" font-size="9">Orchestration engine</text>

  <rect x="370" y="120" width="130" height="44" rx="6" fill="#1e293b" stroke="#334155" stroke-width="1.5"/>
  <text x="435" y="140" text-anchor="middle" fill="#e2e8f0" font-size="12" font-weight="600">AgentData</text>
  <text x="435" y="154" text-anchor="middle" fill="#64748b" font-size="9">MD persistence</text>

  <rect x="515" y="120" width="110" height="44" rx="6" fill="#1e293b" stroke="#334155" stroke-width="1.5"/>
  <text x="570" y="140" text-anchor="middle" fill="#e2e8f0" font-size="12" font-weight="600">Skills</text>
  <text x="570" y="154" text-anchor="middle" fill="#64748b" font-size="9">Skill store + MCP</text>

  <!-- Row 2 -->
  <rect x="60" y="178" width="140" height="44" rx="6" fill="#1e293b" stroke="#334155" stroke-width="1.5"/>
  <text x="130" y="198" text-anchor="middle" fill="#e2e8f0" font-size="12" font-weight="600">Scheduler</text>
  <text x="130" y="212" text-anchor="middle" fill="#64748b" font-size="9">Hangfire jobs</text>

  <rect x="215" y="178" width="130" height="44" rx="6" fill="#1e293b" stroke="#334155" stroke-width="1.5"/>
  <text x="280" y="198" text-anchor="middle" fill="#e2e8f0" font-size="12" font-weight="600">Security</text>
  <text x="280" y="212" text-anchor="middle" fill="#64748b" font-size="9">Governance + limits</text>

  <rect x="360" y="178" width="150" height="44" rx="6" fill="#1e293b" stroke="#334155" stroke-width="1.5"/>
  <text x="435" y="198" text-anchor="middle" fill="#e2e8f0" font-size="12" font-weight="600">SystemTools</text>
  <text x="435" y="212" text-anchor="middle" fill="#64748b" font-size="9">File I/O + scripts</text>

  <rect x="525" y="178" width="160" height="44" rx="6" fill="#1e293b" stroke="#334155" stroke-width="1.5"/>
  <text x="605" y="198" text-anchor="middle" fill="#e2e8f0" font-size="12" font-weight="600">Notifications</text>
  <text x="605" y="212" text-anchor="middle" fill="#64748b" font-size="9">SSE channel</text>

  <!-- Dependency arrows within SDK -->
  <text x="60" y="250" fill="#475569" font-size="10">Dependencies:</text>
  <line x1="180" y1="247" x2="220" y2="247" stroke="#334155" stroke-width="1" marker-end="url(#arrow3)"/>
  <text x="228" y="250" fill="#64748b" font-size="10">All projects depend on Abstractions. Core references Abstractions only.</text>
  <text x="228" y="264" fill="#64748b" font-size="10">AgentData, Skills, Security, Scheduler, Notifications reference Core and/or Abstractions.</text>

  <!-- Web project -->
  <rect x="60" y="282" width="680" height="36" rx="6" fill="#1e293b" stroke="#3b82f6" stroke-width="1.5"/>
  <text x="400" y="305" text-anchor="middle" fill="#60a5fa" font-size="12" font-weight="600">AiAgentCanvas.Web  (Composition Root -- references all SDK projects)</text>

  <!-- Connector line -->
  <line x1="400" y1="356" x2="400" y2="388" stroke="#334155" stroke-width="1" stroke-dasharray="4,3"/>

  <!-- 2. Orchestrator -->
  <rect x="240" y="378" width="320" height="56" rx="10" fill="#111827" stroke="#334155" stroke-width="1.5"/>
  <rect x="240" y="378" width="320" height="28" rx="10" fill="#1e293b"/>
  <rect x="240" y="396" width="320" height="10" fill="#1e293b"/>
  <text x="260" y="398" fill="#e2e8f0" font-size="13" font-weight="700">Orchestrator</text>
  <text x="260" y="424" fill="#94a3b8" font-size="11">AiAgentCanvas.Orchestrator  (hosts Web)</text>

  <!-- Connector line -->
  <line x1="400" y1="434" x2="400" y2="470" stroke="#334155" stroke-width="1" stroke-dasharray="4,3"/>

  <!-- 3. Agents -->
  <rect x="40" y="470" width="340" height="130" rx="10" fill="#111827" stroke="#8b5cf6" stroke-width="1.5"/>
  <rect x="40" y="470" width="340" height="28" rx="10" fill="#2d1b69"/>
  <rect x="40" y="488" width="340" height="10" fill="#2d1b69"/>
  <text x="60" y="490" fill="#a78bfa" font-size="13" font-weight="700">Agents</text>
  <text x="310" y="490" fill="#7c3aed" font-size="10" text-anchor="end">src/Custom/</text>

  <rect x="60" y="510" width="220" height="36" rx="6" fill="#1e293b" stroke="#8b5cf6" stroke-width="1.5"/>
  <text x="170" y="533" text-anchor="middle" fill="#c4b5fd" font-size="12">Agent.HelloWorld</text>

  <text x="60" y="570" fill="#64748b" font-size="10">Contains persona, guardrail, context,</text>
  <text x="60" y="584" fill="#64748b" font-size="10">entity, and skill seed implementations</text>

  <!-- 4. DataConnections -->
  <rect x="420" y="470" width="340" height="130" rx="10" fill="#111827" stroke="#334155" stroke-width="1.5"/>
  <rect x="420" y="470" width="340" height="28" rx="10" fill="#1e293b"/>
  <rect x="420" y="488" width="340" height="10" fill="#1e293b"/>
  <text x="440" y="490" fill="#e2e8f0" font-size="13" font-weight="700">DataConnections</text>
  <text x="690" y="490" fill="#475569" font-size="10" text-anchor="end">src/Custom/</text>

  <rect x="440" y="510" width="210" height="36" rx="6" fill="#1e293b" stroke="#334155" stroke-width="1.5"/>
  <text x="545" y="533" text-anchor="middle" fill="#e2e8f0" font-size="12">MCP.HelloWorldData</text>

  <rect x="440" y="554" width="210" height="36" rx="6" fill="#1e293b" stroke="#334155" stroke-width="1.5"/>
  <text x="545" y="577" text-anchor="middle" fill="#e2e8f0" font-size="12">VectorStore.Sqlite</text>

  <!-- Connector lines from SDK to custom -->
  <line x1="200" y1="356" x2="200" y2="470" stroke="#8b5cf6" stroke-width="1" stroke-dasharray="4,3"/>
  <line x1="600" y1="356" x2="600" y2="470" stroke="#334155" stroke-width="1" stroke-dasharray="4,3"/>

  <!-- Legend -->
  <rect x="40" y="630" width="720" height="130" rx="8" fill="#0f172a" stroke="#334155" stroke-width="1"/>
  <text x="60" y="655" fill="#94a3b8" font-size="11" font-weight="600" letter-spacing="1">KEY PRINCIPLES</text>

  <circle cx="70" cy="680" r="4" fill="#3b82f6"/>
  <text x="84" y="684" fill="#94a3b8" font-size="11">Platform projects never change per use case</text>

  <circle cx="70" cy="704" r="4" fill="#8b5cf6"/>
  <text x="84" y="708" fill="#94a3b8" font-size="11">Custom projects hold all business-specific code (agents, MCP connections, vector stores)</text>

  <circle cx="70" cy="728" r="4" fill="#22c55e"/>
  <text x="84" y="732" fill="#94a3b8" font-size="11">Custom projects only reference Abstractions and Microsoft.Extensions.AI -- never Core or other platform projects</text>

  <circle cx="70" cy="752" r="4" fill="#f59e0b"/>
  <text x="84" y="756" fill="#94a3b8" font-size="11">Web is the composition root that wires everything together via extension methods</text>
</svg>